<svg xmlns="http://www.w3.org/2000/svg" width="30" height="30" viewBox="0 0 30 30" fill="none">
  <path d="M25.0379 6.28791C25.404 5.9218 25.404 5.3282 25.0379 4.96209C24.6718 4.59597 24.0782 4.59597 23.7121 4.96209L15 13.6742L6.28791 4.96209C5.9218 4.59597 5.3282 4.59597 4.96209 4.96209C4.59597 5.3282 4.59597 5.9218 4.96209 6.28791L13.6742 15L4.96209 23.7121C4.59597 24.0782 4.59597 24.6718 4.96209 25.0379C5.32821 25.404 5.9218 25.404 6.28791 25.0379L15 16.3258L23.7121 25.0379C24.0782 25.404 24.6718 25.404 25.0379 25.0379C25.404 24.6718 25.404 24.0782 25.0379 23.7121L16.3258 15L25.0379 6.28791Z" fill="#9CD5FF" />
</svg>