<svg xmlns="http://www.w3.org/2000/svg" className="w-[84px] h-[84px] 2xl:w-[94px] 2xl:h-[94px]" viewBox="0 0 94 94" fill="none">
  <circle cx="47" cy="47" r="47" fill="#181817" />
  <path d="M68.0809 33.3374L48.2919 21.9123C47.4926 21.4508 46.5079 21.4508 45.7086 21.9123L25.9196 33.3374C25.1203 33.7989 24.6279 34.6517 24.6279 35.5747V58.425C24.6279 59.348 25.1203 60.2008 25.9196 60.6623L45.7086 72.0874C46.5079 72.5489 47.4926 72.5489 48.2919 72.0874L68.0809 60.6623C68.8802 60.2008 69.3726 59.348 69.3726 58.425V35.5747C69.3726 34.6517 68.8802 33.7989 68.0809 33.3374Z" stroke="white" strokeWidth="5.16667" strokeLinecap="round" strokeLinejoin="round" />
  <path d="M47 54.75C51.2802 54.75 54.75 51.2802 54.75 47C54.75 42.7198 51.2802 39.25 47 39.25C42.7198 39.25 39.25 42.7198 39.25 47C39.25 51.2802 42.7198 54.75 47 54.75Z" stroke="white" strokeWidth="5.16667" strokeLinecap="round" strokeLinejoin="round" />
</svg>