<svg xmlns="http://www.w3.org/2000/svg" class="w-[84px] h-[84px] 2xl:w-[94px] 2xl:h-[94px]" viewBox="0 0 94 94" fill="none">
  <circle cx="47" cy="47" r="47" fill="#181817" />
  <path fillRule="evenodd" clipRule="evenodd" d="M45.4299 18.0648C42.106 18.6379 39.3828 20.5772 37.9871 23.3651C36.9898 25.3574 37.0667 24.1912 37.0259 37.9085L36.9897 50.1096L36.0451 51.0551C34.0246 53.078 32.6665 55.6205 32.1586 58.3316C31.9262 59.5721 31.9539 62.3032 32.2109 63.4623C33.0559 67.2761 35.3804 70.588 38.6434 72.6276C41.3227 74.3023 43.7801 75 47 75C50.2199 75 52.6773 74.3023 55.3566 72.6276C58.6196 70.588 60.9441 67.2761 61.7891 63.4623C62.0461 62.3032 62.0738 59.5721 61.8414 58.3316C61.3335 55.6205 59.9754 53.078 57.9549 51.0551L57.0103 50.1096L56.9741 37.9085C56.9333 24.1912 57.0102 25.3574 56.0129 23.3651C54.4044 20.1522 51.1283 18.1257 47.3531 18.0085C46.6087 17.9855 45.7432 18.0108 45.4299 18.0648ZM49.0597 23.1799C50.3544 23.7523 51.3142 24.7658 51.7986 26.072C51.9756 26.5498 51.9976 27.8133 52.0314 39.4386L52.0686 52.2777L53.3561 53.4143C56.0652 55.8061 57.1299 58.1422 56.9697 61.3431C56.9052 62.6309 56.5307 64.0512 55.9921 65.0494C55.0197 66.8521 53.0492 68.65 51.1937 69.4278C49.6554 70.0724 48.9395 70.2051 47 70.2051C45.4188 70.2051 45.0587 70.1705 44.2981 69.9452C41.8947 69.2331 40.091 68.012 38.7838 66.212C38.0314 65.1757 37.8829 64.8905 37.4521 63.6552C37.1617 62.8224 37.0808 62.3695 37.0284 61.2843C36.8764 58.1356 37.9548 55.7884 40.6439 53.4143L41.9314 52.2777L41.9686 39.4386C42.0028 27.6979 42.023 26.5533 42.2059 26.058C42.7662 24.5413 43.9836 23.4246 45.6465 22.902C45.9361 22.811 46.5247 22.7658 47.1765 22.7847C48.0864 22.8113 48.3521 22.8671 49.0597 23.1799ZM44.5243 45.5328L44.5203 54.0375L43.5533 54.4795C41.6557 55.3468 40.0964 57.2644 39.6443 59.2868C38.5184 64.3234 43.2665 68.8229 48.5814 67.756C51.3844 67.1933 53.7619 64.9402 54.3557 62.284C55.0568 59.1478 53.393 55.8261 50.4467 54.4795L49.4797 54.0375L49.4757 45.5328L49.4717 37.0282H47H44.5283L44.5243 45.5328Z" fill="white" />
</svg>