<svg xmlns="http://www.w3.org/2000/svg" className="w-[84px] h-[84px] 2xl:w-[94px] 2xl:h-[94px]" viewBox="0 0 94 94" fill="none">
  <circle cx="47" cy="47" r="47" fill="#181817" />
  <path fillRule="evenodd" clipRule="evenodd" d="M47.5 38.625C43.1508 38.625 39.625 42.1508 39.625 46.5C39.625 50.8492 43.1508 54.375 47.5 54.375C51.8492 54.375 55.375 50.8492 55.375 46.5C55.375 42.1508 51.8492 38.625 47.5 38.625ZM44.875 46.5C44.875 45.0503 46.0503 43.875 47.5 43.875C48.9497 43.875 50.125 45.0503 50.125 46.5C50.125 47.9497 48.9497 49.125 47.5 49.125C46.0503 49.125 44.875 47.9497 44.875 46.5Z" fill="white" />
  <path fillRule="evenodd" clipRule="evenodd" d="M73.3037 44.6119C67.2979 33.7736 57.5071 28.125 47.5 28.125C37.4929 28.125 27.7021 33.7736 21.6963 44.6119C21.1092 45.6715 21.102 46.978 21.6708 48.0424C27.5811 59.1034 37.4274 64.875 47.5 64.875C57.5726 64.875 67.4189 59.1034 73.3292 48.0424C73.898 46.978 73.8908 45.6715 73.3037 44.6119ZM47.5 59.625C39.785 59.625 31.8564 55.3526 26.7408 46.3653C31.9301 37.5649 39.8171 33.375 47.5 33.375C55.1829 33.375 63.0699 37.5649 68.2592 46.3653C63.1436 55.3526 55.215 59.625 47.5 59.625Z" fill="white" />
</svg>