<svg xmlns="http://www.w3.org/2000/svg" class="w-[84px] h-[84px] 2xl:w-[94px] 2xl:h-[94px]" viewBox="0 0 94 94" fill="none">
  <circle cx="47" cy="47" r="47" fill="#181817" />
  <path d="M49.4167 51.8334C49.4167 50.4987 48.3347 49.4167 47 49.4167C45.6653 49.4167 44.5834 50.4987 44.5834 51.8334V56.6667C44.5834 58.0014 45.6653 59.0834 47 59.0834C48.3347 59.0834 49.4167 58.0014 49.4167 56.6667V51.8334Z" fill="white" />
  <path fillRule="evenodd" clipRule="evenodd" d="M34.9167 37.6243C30.8473 38.6194 27.6667 42.0695 27.6667 46.4423V59.827C27.6667 66.2682 33.2624 71.1667 39.75 71.1667H54.25C60.7377 71.1667 66.3334 66.2682 66.3334 59.827V46.4423C66.3334 42.0695 63.1528 38.6194 59.0834 37.6243V34.9167C59.0834 28.2433 53.6735 22.8334 47 22.8334C40.3266 22.8334 34.9167 28.2433 34.9167 34.9167V37.6243ZM54.25 34.9167V37.3334H39.75V34.9167C39.75 34.0693 39.8954 33.2559 40.1626 32.5C41.1578 29.6842 43.8433 27.6667 47 27.6667C50.1567 27.6667 52.8422 29.6842 53.8375 32.5C54.1046 33.2559 54.25 34.0693 54.25 34.9167ZM32.5 46.4423C32.5 44.2595 34.4782 42.1667 37.3334 42.1667H56.6667C59.5218 42.1667 61.5 44.2595 61.5 46.4423V59.827C61.5 63.2419 58.4399 66.3334 54.25 66.3334H39.75C35.5602 66.3334 32.5 63.2419 32.5 59.827V46.4423Z" fill="white" />
</svg>