<svg xmlns="http://www.w3.org/2000/svg" viewBox="0 0 22 31" fill="none">
  <path d="M4.6149 25.0685V30.3319C4.6149 30.372 4.5844 30.4121 4.53358 30.4121H3.97451C3.72038 30.4121 3.47642 30.2818 3.33411 30.0713L0.813198 26.2315L0.894519 28.1464V30.342C0.894519 30.3821 0.864023 30.4222 0.813198 30.4222H0.0813202C0.0406602 30.4222 0 30.3921 0 30.342V25.0685C0 25.0284 0.0304953 24.9883 0.0813202 24.9883H0.630228C0.884353 24.9883 1.12831 25.1186 1.27062 25.3292L3.79154 29.1589L3.71022 27.2441V25.0685C3.71022 25.0284 3.74071 24.9883 3.79154 24.9883H4.52342C4.58441 24.9883 4.6149 25.0184 4.6149 25.0685Z" fill="black" />
  <path d="M11.2209 30.4021H10.4484C10.3976 30.4021 10.3569 30.352 10.3772 30.3019L12.4306 25.0585C12.4509 25.0184 12.4916 24.9883 12.5322 24.9883H13.5081C13.5589 24.9883 13.5996 25.0184 13.6097 25.0585L15.6732 30.3019C15.6935 30.352 15.6529 30.4021 15.6021 30.4021H14.8295C14.799 30.4021 14.7685 30.3821 14.7584 30.352L13.1015 26.041C13.0811 25.9808 12.9795 25.9808 12.9592 26.041L11.3023 30.352C11.2819 30.3821 11.2514 30.4021 11.2209 30.4021Z" fill="black" />
  <path d="M21.0628 30.2818L19.5177 28.3368C20.3919 28.1764 20.9001 27.595 20.9001 26.7027C20.9001 25.6801 20.2292 24.9883 19.0298 24.9883H16.8748C16.8138 24.9883 16.763 25.0384 16.763 25.0986C16.763 25.4996 17.0883 25.8204 17.4948 25.8204H18.9484C19.6702 25.8204 20.0158 26.1814 20.0158 26.7127C20.0158 27.2441 19.6803 27.605 18.9484 27.605H16.8951C16.8341 27.605 16.7833 27.6551 16.7833 27.7153V30.3219C16.7833 30.362 16.8138 30.4021 16.8646 30.4021H17.5965C17.6372 30.4021 17.6778 30.372 17.6778 30.3219V28.387H18.5215L19.8633 30.1114C20.0056 30.3019 20.2292 30.4021 20.4732 30.4021H21.0323C21.0729 30.4021 21.1034 30.3319 21.0628 30.2818Z" fill="black" />
  <path d="M9.20621 24.9883H5.80093C5.73994 24.9883 5.69928 25.0284 5.69928 25.0886C5.69928 25.4896 6.03473 25.8204 6.44133 25.8204H9.20621C9.24687 25.8204 9.28753 25.7904 9.28753 25.7402V25.0585C9.27737 25.0184 9.24687 24.9883 9.20621 24.9883ZM9.20621 29.57H6.66496C6.6243 29.57 6.58364 29.5399 6.58364 29.4898V28.1363C6.58364 28.0962 6.61413 28.0561 6.66496 28.0561H9.01307C9.05373 28.0561 9.0944 28.0261 9.0944 27.9759V27.2942C9.0944 27.2541 9.0639 27.214 9.01307 27.214H5.8111C5.75011 27.214 5.69928 27.2641 5.69928 27.3243V30.2818C5.69928 30.342 5.75011 30.3921 5.8111 30.3921H9.20621C9.24687 30.3921 9.28753 30.362 9.28753 30.3119V29.6301C9.27737 29.6001 9.24687 29.57 9.20621 29.57Z" fill="black" />
  <path d="M17.6293 1.10779L13.0388 7.82677C12.7214 8.28434 13.3319 8.83823 13.7714 8.45291L18.2886 4.57565C18.4107 4.47932 18.5816 4.55157 18.5816 4.72014V16.8336C18.5816 17.0022 18.3618 17.0744 18.2642 16.954L4.59046 0.818801C4.15094 0.288989 3.51609 0 2.80799 0H2.31964C1.04994 0 0 1.03554 0 2.31191V19.3622C0 20.6386 1.04994 21.6741 2.34406 21.6741C3.14983 21.6741 3.90677 21.2647 4.34628 20.5663L8.93674 13.8474C9.25416 13.3898 8.64373 12.8359 8.20422 13.2212L3.68701 17.0744C3.56493 17.1707 3.39401 17.0985 3.39401 16.9299V4.84056C3.39401 4.67198 3.61376 4.59973 3.71143 4.72014L17.3851 20.8553C17.8246 21.3851 18.4839 21.6741 19.1676 21.6741H19.6559C20.9501 21.6741 22 20.6386 22 19.3622V2.31191C21.9756 1.03554 20.9256 0 19.6315 0C18.8257 0 18.0688 0.4094 17.6293 1.10779Z" fill="black" />
</svg>