<svg xmlns="http://www.w3.org/2000/svg" width="24" height="24" viewBox="0 0 24 24" fill="none">
  <path d="M11.4838 8.60227C11.7843 8.88738 12.259 8.87492 12.5441 8.57444C12.8292 8.27396 12.8167 7.79925 12.5162 7.51414L8.25 3.46619L3.98377 7.51414C3.68329 7.79925 3.67083 8.27396 3.95594 8.57444C4.24104 8.87492 4.71575 8.88738 5.01623 8.60227L7.5 6.24558V19.5001C7.5 19.9143 7.83579 20.2501 8.25 20.2501C8.66422 20.2501 9 19.9143 9 19.5001V6.24558L11.4838 8.60227Z" fill="#9CD5FF" />
  <path d="M18.9838 15.3977C19.2843 15.1126 19.759 15.1251 20.0441 15.4256C20.3292 15.726 20.3167 16.2008 20.0162 16.4859L15.75 20.5338L11.4838 16.4859C11.1833 16.2008 11.1708 15.726 11.4559 15.4256C11.741 15.1251 12.2158 15.1126 12.5162 15.3977L15 17.7544V4.49993C15 4.08572 15.3358 3.74993 15.75 3.74993C16.1642 3.74993 16.5 4.08572 16.5 4.49993V17.7544L18.9838 15.3977Z" fill="#9CD5FF" />
</svg>